<svg width="153" height="28" viewBox="0 0 153 28" fill="none" xmlns="http://www.w3.org/2000/svg">
<path d="M2.25058 12.125C1.21505 12.125 0.37558 12.9645 0.37558 14C0.37558 15.0355 1.21505 15.875 2.25058 15.875V12.125ZM152.326 15.3258C153.059 14.5936 153.059 13.4064 152.326 12.6742L140.394 0.741749C139.662 0.0095157 138.475 0.0095157 137.742 0.741749C137.01 1.47398 137.01 2.66117 137.742 3.3934L148.349 14L137.742 24.6066C137.01 25.3388 137.01 26.526 137.742 27.2583C138.475 27.9905 139.662 27.9905 140.394 27.2583L152.326 15.3258ZM2.25058 15.875H151.001V12.125H2.25058V15.875Z" fill="#14C285"/>
</svg>
