<svg width="154" height="28" viewBox="0 0 154 28" fill="none" xmlns="http://www.w3.org/2000/svg">
<path d="M151.251 15.8745C152.287 15.8745 153.126 15.035 153.126 13.9995C153.126 12.964 152.287 12.1245 151.251 12.1245V15.8745ZM1.17525 12.6737C0.443008 13.4059 0.443008 14.5931 1.17525 15.3253L13.1077 27.2578C13.8399 27.99 15.0271 27.99 15.7593 27.2578C16.4915 26.5255 16.4915 25.3383 15.7593 24.6061L5.15273 13.9995L15.7593 3.39291C16.4915 2.66068 16.4915 1.47349 15.7593 0.741261C15.0271 0.00902748 13.8399 0.00902748 13.1077 0.741261L1.17525 12.6737ZM151.251 12.1245L2.50107 12.1245V15.8745L151.251 15.8745V12.1245Z" fill="#14C285"/>
</svg>
