<svg width="457" height="428" viewBox="0 0 457 428" fill="none" xmlns="http://www.w3.org/2000/svg">
<path fill-rule="evenodd" clip-rule="evenodd" d="M241.757 0.749169C281.752 -2.79618 316.575 31.5853 343.429 61.4409C366.712 87.3271 363.355 127.181 381.951 156.616C401.665 187.821 446.986 201.475 454.702 237.571C462.425 273.703 439.4 309.039 421.433 341.325C403.26 373.981 385.604 413.498 350.179 425.396C314.5 437.379 279.322 403.988 241.757 401.671C207.387 399.551 173.871 422.04 140.789 412.48C104.931 402.118 75.6986 376.069 52.3563 346.939C26.7024 314.925 -4.87205 278.228 0.631495 237.571C6.20585 196.391 51.3685 174.346 79.8191 144.061C102.101 120.342 125.613 100.156 149.983 78.5888C180.543 51.544 201.111 4.3522 241.757 0.749169Z" fill="#1ED9B7"/>
</svg>
