<svg width="465" height="447" viewBox="0 0 465 447" fill="none" xmlns="http://www.w3.org/2000/svg">
<path fill-rule="evenodd" clip-rule="evenodd" d="M256.247 38.9348C286.533 53.2722 301.358 89.7571 332.764 101.442C373.97 116.773 441.793 76.163 461.671 115.365C482.169 155.792 400.969 188.607 399.936 233.918C398.943 277.483 476.776 310.903 456.336 349.392C436.298 387.124 370.494 346.948 331.106 363.524C299.053 377.014 288.727 421.168 256.247 433.598C219.069 447.826 176.017 451.476 138.905 437.077C100.134 422.034 61.404 393.11 49.3466 353.323C37.2846 313.521 84.7549 274.84 77.3384 233.918C67.3064 178.565 -9.64758 141.853 1.01031 86.6172C10.5107 37.3799 72.8276 10.9428 122.139 1.73068C168.532 -6.93631 213.593 18.7418 256.247 38.9348Z" fill="#ABFF61"/>
</svg>
