<svg width="512" height="611" viewBox="0 0 512 611" fill="none" xmlns="http://www.w3.org/2000/svg">
<path fill-rule="evenodd" clip-rule="evenodd" d="M511.466 128.989C515.168 188.974 450.981 229.6 426.311 284.398C415.691 307.986 402.949 333.145 408.143 358.49C424.868 440.095 531.732 518.924 489.034 590.439C455.226 647.064 359.204 569.124 302.459 535.501C263.484 512.407 264.422 436.871 219.537 430.753C145.933 420.721 56.6297 553.792 10.3401 495.685C-35.0057 438.763 93.9548 380.635 128.665 316.682C140.897 294.142 138.901 267.621 147.274 243.381C156.362 217.071 163.394 190.445 179.99 168.1C200.695 140.221 226.902 118.798 254.979 98.3629C304.829 62.0819 347.633 -5.78347 408.858 1.527C463.951 8.10525 508.05 73.6078 511.466 128.989Z" fill="#14C285"/>
</svg>
