<svg width="50" height="30" viewBox="0 0 50 30" fill="none" xmlns="http://www.w3.org/2000/svg">
<path d="M49.1884 17.7229C49.0656 18.2237 48.9428 18.7245 48.8199 19.2253C46.4704 25.1119 35.7344 28.2655 23.4769 26.4175C11.2193 24.5695 1.81833 18.4603 1.16583 12.0803C1.16368 11.5798 1.16152 11.0793 1.15936 10.5788C2.13017 3.81954 13.7379 -0.086829 26.9959 1.88395C40.2539 3.85472 50.1592 10.9637 49.1884 17.7229Z" fill="#ECFFF5" stroke="#35E032" stroke-width="1.25" stroke-miterlimit="10"/>
<path d="M49.2947 19.6034C48.2051 26.9894 36.3511 31.2672 22.8424 29.2907C9.33376 27.3141 -0.827033 19.6993 0.262642 12.3133C0.385244 11.8125 0.507272 11.1865 0.629874 10.6856C1.1627 17.5679 10.6937 24.1827 23.3269 26.0358C35.835 27.8891 46.9426 24.3636 49.412 17.9762C49.4143 18.4768 49.4167 18.9774 49.2947 19.6034Z" fill="#35E032"/>
<path d="M26.2986 13.7746C25.6731 13.6511 25.1715 13.2769 25.1694 12.7765L25.7772 8.77099C25.9006 8.3953 26.3995 8.14379 27.1494 8.14189L32.9028 9.00315C33.5283 9.12669 34.0293 9.37567 34.2803 9.62528C35.034 10.4992 35.5372 11.2487 35.9159 12.1236C36.2952 13.1236 36.4245 14.1243 36.3032 15.0005C36.0586 16.2523 35.5634 17.3797 34.4423 18.2584C33.4461 19.1368 31.9489 19.7662 30.2001 20.0209C28.4513 20.2756 26.5764 20.2803 24.4505 20.0355C22.4496 19.7903 20.5721 19.1694 18.819 18.4231C17.0659 17.6768 15.9367 16.6787 15.1819 15.5545C14.4272 14.4303 14.1719 13.1797 14.4165 11.9279C14.5372 10.9266 14.909 10.1749 15.5307 9.42257C16.153 8.79538 16.9008 8.29297 17.8991 7.91507C18.523 7.66324 19.2724 7.53624 20.1473 7.53402C20.8972 7.53212 21.5233 7.78079 21.6504 8.28096L21.6509 8.40605C21.7775 8.7811 21.4042 9.15742 20.7792 9.15901C20.1543 9.16059 19.6548 9.287 19.1554 9.41339C18.5315 9.66521 17.9077 9.91703 17.5348 10.4185C17.037 10.9202 16.7892 11.4213 16.6674 12.1724C16.5456 12.9234 16.6738 13.6739 16.9265 14.2988C17.1791 14.9238 17.6812 15.423 18.3083 15.9219C18.9354 16.4208 19.562 16.7947 20.313 17.043C21.565 17.5403 22.9415 17.9122 24.4425 18.1586C26.3184 18.4041 27.9438 18.5251 29.1927 18.2717C30.4415 18.0183 31.5648 17.6401 32.3115 16.8875C33.0588 16.2599 33.4306 15.5082 33.5518 14.6321C33.6736 13.881 33.5454 13.1306 33.1672 12.3808C32.9146 11.7559 32.5369 11.1312 32.1603 10.7568C32.0348 10.632 31.9093 10.5072 31.6593 10.5078L28.7829 10.1397C28.4079 10.1407 28.0335 10.2667 28.0346 10.517L27.6708 13.1455C27.548 13.6463 27.0491 13.8978 26.2986 13.7746Z" fill="#35E032"/>
</svg>
