<svg width="51" height="50" viewBox="0 0 51 50" fill="none" xmlns="http://www.w3.org/2000/svg">
<path d="M25.4986 49.9984C24.1558 49.9984 22.8088 49.8912 21.4939 49.6797C15.6956 48.746 10.3815 45.7655 6.5327 41.2877C2.64213 36.7612 0.499268 30.9769 0.499268 24.9991C0.499268 11.2137 11.7146 -0.000244141 25.4986 -0.000244141C39.2826 -0.000244141 50.4993 11.2151 50.4993 24.9991C50.4993 31.0687 48.298 36.9212 44.2988 41.4783C40.3387 45.9937 34.898 48.9339 28.9786 49.759C27.8335 49.9191 26.6619 49.9998 25.4986 49.9998V49.9984ZM25.4986 1.66814C12.6344 1.66814 2.16904 12.1334 2.16904 24.9977C2.16904 36.5149 10.408 46.2024 21.7597 48.0294C24.05 48.3982 26.4447 48.4246 28.7476 48.1032C40.1953 46.5085 48.8281 36.5748 48.8281 24.9977C48.8281 12.1334 38.3628 1.66814 25.4972 1.66814H25.4986Z" fill="#ECFFF5"/>
<path d="M36.7735 14.6543C34.7003 13.7026 32.4768 13.0013 30.1517 12.6005C30.1099 12.5922 30.0668 12.6117 30.0459 12.6506C29.7593 13.1599 29.4435 13.8222 29.2208 14.344C26.7204 13.9697 24.2325 13.9697 21.7836 14.344C21.5623 13.8111 21.2339 13.1585 20.9459 12.6506C20.9236 12.6131 20.8819 12.5936 20.8388 12.6005C18.5151 13.0013 16.2916 13.7012 14.2169 14.6543C14.1988 14.6626 14.1835 14.6752 14.1738 14.6919C9.95633 20.9937 8.80004 27.1397 9.36775 33.2091C9.37053 33.2384 9.3872 33.2676 9.40947 33.2857C12.1923 35.3297 14.8876 36.5695 17.5327 37.3918C17.5745 37.4043 17.6204 37.389 17.6468 37.3542C18.273 36.4999 18.8309 35.5982 19.3082 34.6507C19.336 34.595 19.3082 34.5296 19.2511 34.5074C18.3662 34.172 17.5244 33.7629 16.7132 33.2982C16.6492 33.2606 16.6436 33.1688 16.7034 33.1256C16.8746 32.9976 17.0443 32.8655 17.2071 32.7305C17.2363 32.7054 17.2781 32.7013 17.3129 32.7166C22.6379 35.1474 28.4012 35.1474 33.6636 32.7166C33.6984 32.6999 33.7388 32.7054 33.7694 32.7291C33.9322 32.8627 34.1034 32.9976 34.2745 33.1256C34.3329 33.1702 34.3302 33.2606 34.2661 33.2982C33.4563 33.7713 32.6131 34.172 31.7268 34.506C31.6697 34.5282 31.6433 34.595 31.6711 34.6507C32.1595 35.5968 32.7175 36.4985 33.3311 37.3528C33.3562 37.389 33.4035 37.4043 33.4452 37.3918C36.1029 36.5695 38.7995 35.3283 41.5823 33.2857C41.6074 33.2676 41.6227 33.2411 41.6241 33.2105C42.3031 26.1921 40.4873 20.0962 36.8139 14.6933C36.8055 14.6752 36.7903 14.6626 36.7722 14.6543H36.7735ZM20.1041 29.5135C18.5012 29.5135 17.1807 28.0413 17.1807 26.2339C17.1807 24.4264 18.4761 22.9542 20.1041 22.9542C21.7321 22.9542 23.0539 24.4389 23.0275 26.2339C23.0275 28.0413 21.7321 29.5135 20.1041 29.5135ZM30.9142 29.5135C29.3113 29.5135 27.9907 28.0413 27.9907 26.2339C27.9907 24.4264 29.2862 22.9542 30.9142 22.9542C32.5422 22.9542 33.864 24.4389 33.8376 26.2339C33.8376 28.0413 32.5547 29.5135 30.9142 29.5135Z" fill="#ECFFF5"/>
</svg>
