<svg width="38" height="38" viewBox="0 0 38 38" fill="none" xmlns="http://www.w3.org/2000/svg">
<path d="M30.5927 16.7037V30.9672C30.5927 31.8996 30.2223 32.7938 29.563 33.4531C28.9037 34.1124 28.0095 34.4828 27.0771 34.4828H10.6713C9.73897 34.4828 8.84478 34.1124 8.1855 33.4531C7.52621 32.7938 7.15582 31.8996 7.15582 30.9672V7.53042C7.15582 6.59804 7.52621 5.70385 8.1855 5.04457C8.84478 4.38528 9.73897 4.01489 10.6713 4.01489H17.9038C18.5252 4.01499 19.1211 4.26183 19.5605 4.70115L29.9064 15.047C30.3457 15.4865 30.5926 16.0824 30.5927 16.7037Z" stroke="#ECFFF5" stroke-width="2.34375" stroke-linejoin="round"/>
<path d="M18.8749 4.60083V13.3896C18.8749 14.0112 19.1218 14.6073 19.5613 15.0469C20.0009 15.4864 20.597 15.7333 21.2186 15.7333H30.0074" stroke="#ECFFF5" stroke-width="2.34375" stroke-linecap="round" stroke-linejoin="round"/>
</svg>
