<svg width="51" height="50" viewBox="0 0 51 50" fill="none" xmlns="http://www.w3.org/2000/svg">
<path d="M25.4986 49.9998C24.1558 49.9998 22.8074 49.8926 21.4939 49.6797C15.6956 48.746 10.3815 45.7655 6.5327 41.2877C2.64213 36.7612 0.499268 30.9769 0.499268 24.9991C0.499268 11.2137 11.7146 -0.000244141 25.4986 -0.000244141C39.2826 -0.000244141 50.4993 11.2151 50.4993 24.9991C50.4993 31.0687 48.298 36.9212 44.2988 41.4783C40.3387 45.9937 34.898 48.9339 28.9786 49.759C27.8335 49.9191 26.6619 49.9998 25.4986 49.9998ZM25.4986 1.66953C12.6344 1.66953 2.16904 12.1348 2.16904 24.9991C2.16904 36.5163 10.408 46.2038 21.7597 48.0308C24.0487 48.3996 26.4447 48.426 28.7476 48.1046C40.1953 46.5099 48.8281 36.5762 48.8281 24.9991C48.8281 12.1348 38.3628 1.66953 25.4972 1.66953H25.4986Z" fill="#ECFFF5"/>
<path d="M28.8621 20.2376V25.5016H35.3743L34.3432 32.5939H28.8621V48.9327C27.7629 49.0857 26.6386 49.165 25.4976 49.165C24.1799 49.165 22.8871 49.0593 21.6265 48.8561V32.5939H15.6209V25.5016H21.6265V19.0618C21.6265 15.0655 24.8659 11.8247 28.8636 11.8247V11.8289C28.8747 11.8289 28.8858 11.8247 28.8969 11.8247H35.3757V17.957H31.1428C29.8835 17.957 28.8636 18.9769 28.8636 20.2362L28.8621 20.2376Z" fill="#ECFFF5"/>
</svg>
