<svg width="38" height="38" viewBox="0 0 38 38" fill="none" xmlns="http://www.w3.org/2000/svg">
<path d="M19.2755 24.4983H17.648V15.3986H19.2755V24.4983ZM18.453 13.7536C18.1613 13.7536 17.9105 13.6603 17.7005 13.4736C17.5022 13.2753 17.403 13.0128 17.403 12.6861C17.403 12.3595 17.5022 12.1028 17.7005 11.9162C17.9105 11.7178 18.1613 11.6187 18.453 11.6187C18.7446 11.6187 18.9896 11.7178 19.188 11.9162C19.398 12.1028 19.503 12.3595 19.503 12.6861C19.503 13.0128 19.398 13.2753 19.188 13.4736C18.9896 13.6603 18.7446 13.7536 18.453 13.7536Z" fill="#ECFFF5"/>
<path d="M17.6655 4.87341C18.1466 4.0401 19.3494 4.0401 19.8305 4.87341L31.738 25.4978C32.2191 26.3311 31.6177 27.3728 30.6555 27.3728H6.84049C5.87827 27.3728 5.27688 26.3311 5.75799 25.4978L17.6655 4.87341Z" stroke="#ECFFF5" stroke-width="2.49993"/>
</svg>
