<svg width="200" height="62" viewBox="0 0 200 62" fill="none" xmlns="http://www.w3.org/2000/svg">
<path d="M19.4722 37.3324C19.4722 36.0384 20.5035 34.9727 21.7558 34.9727L33.6651 34.9473C34.9174 34.9473 35.9487 36.013 35.9487 37.3071V48.167C35.9487 49.258 35.433 50.273 34.5982 50.9073C32.4864 52.4551 30.3501 53.673 28.1402 54.5357C25.4637 55.5761 22.6889 56.1089 19.8651 56.1089C16.0591 56.1089 12.5722 55.2716 9.45372 53.5715C6.33522 51.8715 3.97793 49.4356 2.38185 46.2386C0.785763 43.0415 0 39.4638 0 35.5309C0 31.6234 0.785763 27.9696 2.38185 24.5949C3.95337 21.1948 6.237 18.6828 9.20817 17.0589C12.1793 15.4096 15.5925 14.5977 19.4722 14.5977C22.2715 14.5977 24.8252 15.0798 27.0843 16.0186C29.3434 16.9574 31.1359 18.2768 32.4373 19.9515C33.3213 21.0933 34.0334 22.4635 34.6227 24.062C35.0893 25.3561 34.3772 26.8024 33.1003 27.183L32.8056 27.2591C31.7007 27.5636 30.522 26.98 30.1046 25.8889C29.6626 24.7471 29.1469 23.7829 28.5822 23.0217C27.7227 21.8545 26.4704 20.9157 24.8743 20.2052C23.2537 19.4948 21.4857 19.1395 19.5213 19.1395C17.164 19.1395 15.126 19.5201 13.4317 20.256C11.7128 20.9918 10.3377 21.956 9.28184 23.1739C8.22597 24.3919 7.41565 25.7113 6.82632 27.1576C5.84412 29.6442 5.35302 32.3338 5.35302 35.2264C5.35302 38.8041 5.94234 41.7982 7.14554 44.2087C8.34874 46.6192 10.0676 48.4207 12.3512 49.5879C14.6349 50.7551 17.0413 51.3387 19.6195 51.3387C21.8541 51.3387 24.0149 50.9073 26.1512 50.0192C27.9683 49.258 29.417 48.4461 30.4975 47.6087C30.8167 47.355 30.9886 46.9744 30.9886 46.5684V41.0623C30.9886 40.3265 30.3992 39.7175 29.6871 39.7175H21.8541C20.5035 39.6922 19.4722 38.6265 19.4722 37.3324Z" fill="#35E032"/>
<path d="M130.791 46.6848C132.559 48.0804 134.598 49.0446 136.709 49.4506C137.986 49.7043 139.263 49.7297 140.515 49.5774C143.364 49.2222 146.04 47.8013 148.348 45.4923C148.84 44.9848 149.306 44.452 149.748 43.8937C156.157 35.5458 155.003 20.6769 154.487 16.3126C154.34 15.2215 153.456 14.4096 152.4 14.4603C149.208 14.6633 138.453 15.729 131.454 21.3873C129.245 14.5872 124.112 9.61397 121.682 7.53334C121.19 7.12736 120.577 6.92437 119.987 7.02586C119.373 7.12736 118.858 7.45722 118.489 7.99006C116.058 11.6439 110.484 21.1844 111.319 30.4204C111.368 31.0547 111.467 31.7144 111.589 32.3741C112.891 39.3772 119.815 42.6504 123.818 43.1579M123.769 43.2087C125.095 43.031 125.709 42.6758 126.74 41.9907C127.501 43.3609 130.742 46.6341 131.847 47.6998" stroke="#35E032" stroke-width="1.75" stroke-miterlimit="17.5781" stroke-linecap="round" stroke-linejoin="round"/>
<path d="M131.405 21.4131C131.405 21.4131 135.924 32.3999 126.74 41.9911" stroke="#35E032" stroke-width="1.75" stroke-miterlimit="17.5781" stroke-linecap="round" stroke-linejoin="round"/>
<path d="M125.442 53.8316L125.443 53.8334C125.654 54.7053 126.377 55.3567 127.275 55.4804L127.282 55.4813L127.289 55.4821L129.032 55.6597L129.032 55.6598L129.043 55.6607C129.897 55.7237 130.71 55.2519 131.1 54.4774L131.1 54.4774L131.102 54.4723L144.092 27.7285L144.092 27.728C144.743 26.3832 143.9 24.7499 142.422 24.6184L141.985 24.5682L141.977 24.5673L141.968 24.5666C141.101 24.5048 140.25 24.9673 139.881 25.7892L130.208 46.5929L130.171 46.6731V46.6915C130.169 46.6953 130.168 46.6992 130.167 46.7035C129.625 47.7905 128.068 47.6361 127.767 46.4124L127.741 46.3074L127.73 46.2957L123.253 23.5702C123.253 23.57 123.253 23.5698 123.253 23.5696C123.073 22.6394 122.319 21.9477 121.404 21.8528C121.404 21.8528 121.404 21.8528 121.403 21.8528L120.693 21.7768L120.693 21.7767L120.685 21.7761C119.241 21.649 118.141 23.0088 118.468 24.4215L118.468 24.4215L118.469 24.4236L125.442 53.8316Z" fill="#35E032" stroke="#35E032" stroke-width="0.8"/>
<path d="M48.7762 40.0121C49.0119 40.0121 49.2771 40.0324 49.5717 40.073C49.886 40.0933 50.1905 40.1339 50.4852 40.1948C50.7799 40.2354 51.045 40.2861 51.2808 40.347C51.5361 40.3876 51.7228 40.4282 51.8406 40.4688L51.3692 42.9351C51.1531 42.8539 50.7897 42.7626 50.2789 42.6611C49.7878 42.5393 49.1494 42.4784 48.3636 42.4784C47.8529 42.4784 47.3421 42.5393 46.8314 42.6611C46.3403 42.7626 46.0162 42.8336 45.859 42.8742V56.1801H43.1187V41.0169C43.7669 40.7733 44.5723 40.55 45.5349 40.347C46.4974 40.1237 47.5779 40.0121 48.7762 40.0121Z" fill="#ECFFF5"/>
<path d="M55.1038 48.294C55.1038 46.8934 55.3002 45.6755 55.6931 44.6402C56.086 43.5847 56.6066 42.7118 57.2548 42.0217C57.9031 41.3315 58.6495 40.8139 59.4942 40.4688C60.3389 40.1237 61.2033 39.9512 62.0873 39.9512C64.1499 39.9512 65.7312 40.621 66.8313 41.9608C67.9314 43.2802 68.4814 45.2999 68.4814 48.02C68.4814 48.1418 68.4814 48.3042 68.4814 48.5072C68.4814 48.6898 68.4716 48.8624 68.4519 49.0248H57.962C58.0799 50.669 58.5415 51.9174 59.3469 52.7699C60.1523 53.6225 61.4095 54.0488 63.1186 54.0488C64.0811 54.0488 64.8865 53.9676 65.5348 53.8052C66.2027 53.6225 66.7036 53.4499 67.0376 53.2876L67.4206 55.6625C67.0867 55.8452 66.4974 56.0381 65.6527 56.241C64.8276 56.444 63.8847 56.5455 62.8239 56.5455C61.4881 56.5455 60.3291 56.3425 59.3469 55.9366C58.3843 55.5103 57.5888 54.9318 56.9601 54.201C56.3315 53.4702 55.8601 52.6075 55.5458 51.6129C55.2511 50.5979 55.1038 49.4917 55.1038 48.294ZM65.6232 46.7412C65.6428 45.4623 65.3285 44.4169 64.6803 43.605C64.0517 42.7727 63.1775 42.3566 62.0578 42.3566C61.4292 42.3566 60.8693 42.4885 60.3782 42.7524C59.9068 42.996 59.5041 43.3208 59.1701 43.7268C58.8362 44.1327 58.571 44.5996 58.3745 45.1274C58.1977 45.6552 58.0799 46.1931 58.0209 46.7412H65.6232Z" fill="#ECFFF5"/>
<path d="M73.0367 48.294C73.0367 46.8934 73.2331 45.6755 73.626 44.6402C74.0189 43.5847 74.5395 42.7118 75.1877 42.0217C75.836 41.3315 76.5825 40.8139 77.4271 40.4688C78.2718 40.1237 79.1362 39.9512 80.0202 39.9512C82.0828 39.9512 83.6641 40.621 84.7642 41.9608C85.8643 43.2802 86.4143 45.2999 86.4143 48.02C86.4143 48.1418 86.4143 48.3042 86.4143 48.5072C86.4143 48.6898 86.4045 48.8624 86.3849 49.0248H75.8949C76.0128 50.669 76.4744 51.9174 77.2798 52.7699C78.0852 53.6225 79.3424 54.0488 81.0515 54.0488C82.014 54.0488 82.8195 53.9676 83.4677 53.8052C84.1356 53.6225 84.6365 53.4499 84.9705 53.2876L85.3535 55.6625C85.0196 55.8452 84.4303 56.0381 83.5856 56.241C82.7605 56.444 81.8176 56.5455 80.7568 56.5455C79.421 56.5455 78.262 56.3425 77.2798 55.9366C76.3173 55.5103 75.5217 54.9318 74.8931 54.201C74.2644 53.4702 73.793 52.6075 73.4787 51.6129C73.184 50.5979 73.0367 49.4917 73.0367 48.294ZM83.5561 46.7412C83.5757 45.4623 83.2614 44.4169 82.6132 43.605C81.9846 42.7727 81.1104 42.3566 79.9907 42.3566C79.3621 42.3566 78.8022 42.4885 78.3111 42.7524C77.8397 42.996 77.437 43.3208 77.103 43.7268C76.7691 44.1327 76.5039 44.5996 76.3074 45.1274C76.1306 45.6552 76.0128 46.1931 75.9538 46.7412H83.5561Z" fill="#ECFFF5"/>
<path d="M91.8241 40.8037C92.4527 40.6413 93.2876 40.4688 94.3287 40.2861C95.3699 40.1034 96.5682 40.0121 97.9236 40.0121C99.1415 40.0121 100.153 40.1948 100.959 40.5601C101.764 40.9052 102.402 41.4025 102.874 42.0521C103.365 42.6814 103.709 43.4426 103.905 44.3357C104.102 45.2289 104.2 46.2134 104.2 47.2892V56.1801H101.46V47.8982C101.46 46.9238 101.391 46.0916 101.253 45.4014C101.135 44.7113 100.929 44.153 100.635 43.7268C100.34 43.3005 99.947 42.996 99.4559 42.8133C98.9648 42.6103 98.3558 42.5088 97.629 42.5088C97.3343 42.5088 97.0298 42.519 96.7155 42.5393C96.4012 42.5596 96.0967 42.59 95.8021 42.6306C95.527 42.6509 95.2717 42.6814 95.0359 42.722C94.8198 42.7626 94.6627 42.793 94.5645 42.8133V56.1801H91.8241V40.8037Z" fill="#ECFFF5"/>
<path d="M151.436 53.1846C152.085 53.1846 152.654 53.1744 153.145 53.1541C153.656 53.1135 154.079 53.0526 154.413 52.9714V48.2519C154.216 48.1504 153.892 48.0692 153.44 48.0083C153.008 47.9271 152.478 47.8865 151.849 47.8865C151.436 47.8865 150.994 47.917 150.523 47.9779C150.071 48.0388 149.649 48.1707 149.256 48.3737C148.883 48.5564 148.568 48.8203 148.313 49.1654C148.058 49.4902 147.93 49.9266 147.93 50.4747C147.93 51.4896 148.244 52.2001 148.873 52.606C149.502 52.9917 150.356 53.1846 151.436 53.1846ZM151.201 38.9956C152.301 38.9956 153.224 39.1479 153.971 39.4524C154.737 39.7365 155.346 40.1527 155.797 40.7007C156.269 41.2285 156.603 41.8679 156.799 42.619C156.996 43.3497 157.094 44.1617 157.094 45.0549V54.9506C156.858 54.9912 156.524 55.0521 156.092 55.1333C155.68 55.1942 155.208 55.255 154.678 55.3159C154.147 55.3768 153.568 55.4276 152.939 55.4682C152.33 55.5291 151.721 55.5595 151.112 55.5595C150.248 55.5595 149.452 55.4682 148.726 55.2855C147.999 55.1028 147.37 54.8186 146.84 54.4329C146.309 54.027 145.897 53.4992 145.602 52.8496C145.307 52.2001 145.16 51.4186 145.16 50.5051C145.16 49.6323 145.327 48.8812 145.661 48.2519C146.015 47.6227 146.486 47.1152 147.075 46.7295C147.665 46.3438 148.352 46.0596 149.138 45.877C149.924 45.6943 150.749 45.6029 151.613 45.6029C151.888 45.6029 152.173 45.6232 152.468 45.6638C152.762 45.6841 153.037 45.7247 153.293 45.7856C153.568 45.8262 153.804 45.8668 154 45.9074C154.196 45.948 154.334 45.9785 154.413 45.9987V45.2071C154.413 44.7402 154.363 44.2835 154.265 43.8369C154.167 43.37 153.99 42.9641 153.735 42.619C153.479 42.2536 153.126 41.9694 152.674 41.7664C152.242 41.5431 151.672 41.4315 150.965 41.4315C150.061 41.4315 149.266 41.5025 148.578 41.6446C147.91 41.7664 147.409 41.8984 147.075 42.0405L146.751 39.6959C147.105 39.5335 147.694 39.3813 148.519 39.2392C149.344 39.0768 150.238 38.9956 151.201 38.9956Z" fill="#ECFFF5"/>
<path d="M175.318 54.7679C174.689 54.9303 173.854 55.1028 172.813 55.2855C171.791 55.4682 170.603 55.5595 169.248 55.5595C168.069 55.5595 167.077 55.387 166.271 55.0419C165.466 54.6765 164.818 54.1691 164.327 53.5195C163.836 52.8699 163.482 52.1087 163.266 51.2359C163.05 50.3427 162.942 49.3582 162.942 48.2824V39.3915H165.682V47.6734C165.682 49.6018 165.977 50.9821 166.566 51.8144C167.155 52.6466 168.148 53.0628 169.542 53.0628C169.837 53.0628 170.141 53.0526 170.456 53.0323C170.77 53.012 171.065 52.9917 171.34 52.9714C171.615 52.9308 171.86 52.9004 172.076 52.8801C172.312 52.8395 172.479 52.7989 172.577 52.7583V39.3915H175.318V54.7679Z" fill="#ECFFF5"/>
<path d="M186.109 55.5291C184.419 55.4885 183.221 55.113 182.514 54.4025C181.807 53.692 181.453 52.5857 181.453 51.0836V32.0839L184.193 31.5967V50.6269C184.193 51.0938 184.233 51.4795 184.311 51.7839C184.39 52.0884 184.517 52.332 184.694 52.5147C184.871 52.6974 185.107 52.8395 185.401 52.941C185.696 53.0222 186.06 53.0932 186.492 53.1541L186.109 55.5291Z" fill="#ECFFF5"/>
<path d="M193.606 39.3915H199.411V41.7664H193.606V49.074C193.606 49.8657 193.665 50.5254 193.783 51.0532C193.901 51.5606 194.077 51.9666 194.313 52.2711C194.549 52.5553 194.844 52.7583 195.197 52.8801C195.551 53.0019 195.963 53.0628 196.435 53.0628C197.26 53.0628 197.918 52.9714 198.409 52.7887C198.92 52.5857 199.273 52.4437 199.47 52.3625L200 54.707C199.725 54.8491 199.244 55.0216 198.556 55.2246C197.869 55.4479 197.083 55.5595 196.199 55.5595C195.158 55.5595 194.293 55.4276 193.606 55.1637C192.938 54.8795 192.398 54.4634 191.985 53.9153C191.573 53.3673 191.278 52.6974 191.101 51.9057C190.944 51.0938 190.866 50.16 190.866 49.1045V34.9764L193.606 34.4893V39.3915Z" fill="#ECFFF5"/>
</svg>
