<svg width="102" height="126" viewBox="0 0 102 126" fill="none" xmlns="http://www.w3.org/2000/svg">
<path d="M17.2326 90.585H33.0402V98.3973H17.2326V90.585ZM17.2326 74.9604H33.0402V82.7727H17.2326V74.9604Z" fill="#14C285"/>
<path d="M39.3633 117.928H10.9096C7.43197 117.928 4.58661 114.412 4.58661 110.116V67.1481C4.58661 62.8514 7.43197 59.3358 10.9096 59.3358H39.3633C42.841 59.3358 45.6863 62.8514 45.6863 67.1481V110.116C45.6863 114.412 42.841 117.928 39.3633 117.928ZM10.9096 67.1481V110.116H39.3633V67.1481H10.9096ZM58.3324 8.55604H83.6245V16.3683H58.3324V8.55604ZM67.817 24.1806H93.1091V31.9929H67.817V24.1806ZM67.817 39.8051H93.1091V47.6174H67.817V39.8051ZM58.3324 55.4297H83.6245V63.242H58.3324V55.4297ZM67.817 71.0542H93.1091V78.8665H67.817V71.0542ZM36.2018 4.6499L31.7757 10.1185L39.9956 20.2745H10.9096C7.43197 20.2745 4.58661 23.79 4.58661 28.0867V47.6174H10.9096V28.0867H39.9956L31.7757 38.2427L36.2018 43.7113L52.0094 24.1806L36.2018 4.6499Z" fill="#14C285"/>
</svg>
