<svg width="51" height="50" viewBox="0 0 51 50" fill="none" xmlns="http://www.w3.org/2000/svg">
<path d="M25.4986 49.9984C24.1544 49.9984 22.8074 49.8912 21.4939 49.6797C15.6956 48.746 10.3816 45.7655 6.53277 41.2877C2.64219 36.7612 0.499268 30.9769 0.499268 24.9991C0.499268 11.2137 11.7146 -0.000244141 25.4986 -0.000244141C39.2826 -0.000244141 50.4979 11.2151 50.4979 24.9991C50.4979 31.0687 48.2966 36.9212 44.2975 41.4783C40.3373 45.9937 34.8966 48.9339 28.9773 49.759C27.8321 49.9191 26.6604 49.9998 25.4972 49.9998L25.4986 49.9984ZM25.4986 1.66814C12.6344 1.66814 2.16904 12.1335 2.16904 24.9977C2.16904 36.5163 10.408 46.2024 21.7597 48.0294C24.0473 48.3982 26.4448 48.4246 28.7477 48.1032C40.1954 46.5085 48.8282 36.5748 48.8282 24.9977C48.8282 12.1335 38.3628 1.66814 25.4986 1.66814Z" fill="#ECFFF5"/>
<path d="M9.90625 23.9077C9.97443 23.8729 10.0426 23.8409 10.1108 23.8103C11.2727 23.2718 12.4498 22.7681 13.6256 22.2644C13.6896 22.2644 13.7967 22.1921 13.8551 22.1656C13.9456 22.1267 14.036 22.0877 14.1279 22.0487C14.3018 21.9736 14.4771 21.8999 14.6511 21.8247C15.0003 21.6758 15.3482 21.5256 15.6974 21.3767C16.3945 21.0789 17.0931 20.7797 17.7902 20.4806C19.1858 19.8837 20.5814 19.2867 21.977 18.6898C23.3726 18.0929 24.7682 17.496 26.1638 16.899C27.5594 16.3021 28.9551 15.7052 30.3507 15.1082C31.7463 14.5113 33.1419 13.9144 34.5375 13.3175C34.8478 13.1853 35.1845 12.9849 35.5157 12.9265C35.7953 12.8778 36.0681 12.7804 36.3477 12.7275C36.8807 12.6259 37.4693 12.5842 37.98 12.8054C38.1567 12.882 38.3181 12.9905 38.4558 13.1254C39.1028 13.7669 39.0124 14.8188 38.876 15.7205C37.9215 22.0042 36.9669 28.2866 36.011 34.5703C35.8802 35.4316 35.7035 36.3778 35.0217 36.9218C34.4457 37.3824 33.6261 37.4353 32.9165 37.2391C32.2055 37.0429 31.5779 36.6296 30.9629 36.2219C28.411 34.5327 25.8591 32.8421 23.3072 31.1529C22.7005 30.7508 22.0257 30.2276 22.0326 29.4999C22.0368 29.0616 22.2984 28.6706 22.5656 28.3228C24.7821 25.4313 27.9838 23.443 30.3632 20.6838C30.6985 20.2955 30.9629 19.5915 30.5023 19.3674C30.2282 19.2339 29.9124 19.4148 29.6633 19.5887C26.5173 21.7746 23.3712 23.9606 20.2252 26.1451C19.1983 26.8576 18.1227 27.5922 16.8857 27.7676C15.7795 27.9248 14.665 27.6173 13.5936 27.3014C12.6961 27.0371 11.8 26.7671 10.9067 26.4874C10.4322 26.3399 9.94244 26.1813 9.5751 25.846C9.20776 25.512 8.99765 24.9499 9.21889 24.5046C9.35664 24.225 9.62657 24.0483 9.90903 23.9049L9.90625 23.9077Z" fill="#ECFFF5"/>
</svg>
