<svg width="51" height="50" viewBox="0 0 51 50" fill="none" xmlns="http://www.w3.org/2000/svg">
<path d="M25.4986 49.9998C24.1558 49.9998 22.8074 49.8926 21.4939 49.6797C15.6956 48.746 10.3816 45.7655 6.53277 41.2877C2.64219 36.7612 0.499268 30.9769 0.499268 24.9991C0.499268 11.2137 11.7146 -0.000244141 25.4986 -0.000244141C39.2826 -0.000244141 50.4979 11.2151 50.4979 24.9991C50.4979 31.0687 48.2966 36.9212 44.2975 41.4783C40.3373 45.9937 34.8966 48.9339 28.9773 49.759C27.8321 49.9191 26.6604 49.9998 25.4972 49.9998H25.4986ZM25.4986 1.66953C12.6344 1.66953 2.16904 12.1348 2.16904 24.9991C2.16904 36.5163 10.408 46.2038 21.7597 48.0308C24.0487 48.3996 26.4448 48.426 28.7477 48.1046C40.1954 46.5099 48.8282 36.5762 48.8282 24.9991C48.8282 12.1348 38.3628 1.66953 25.4986 1.66953Z" fill="#ECFFF5"/>
<path d="M37.3228 18.2376V22.8544C36.5144 22.7765 35.468 22.5928 34.3061 22.1671C32.7909 21.6119 31.6624 20.8522 30.925 20.2636V29.5974L30.9069 29.5681C30.9194 29.7532 30.925 29.941 30.925 30.1317C30.925 34.7679 27.1542 38.5401 22.5165 38.5401C17.8788 38.5401 14.1081 34.7666 14.1081 30.1317C14.1081 25.4968 17.8788 21.7218 22.5165 21.7218C22.9701 21.7218 23.4154 21.758 23.8509 21.8276V26.379C23.4321 26.2287 22.984 26.148 22.5165 26.148C20.3208 26.148 18.5328 27.9346 18.5328 30.1317C18.5328 32.3287 20.3208 34.1154 22.5165 34.1154C24.7122 34.1154 26.5002 32.3274 26.5002 30.1317C26.5002 30.0496 26.4988 29.9675 26.4932 29.8854V11.7466H31.1086C31.1253 12.1376 31.142 12.5314 31.1573 12.9223C31.1879 13.6918 31.4621 14.4307 31.9393 15.0359C32.5001 15.747 33.3266 16.5735 34.4899 17.233C35.578 17.8494 36.5993 18.1138 37.3228 18.239V18.2376Z" fill="#ECFFF5"/>
</svg>
