<svg width="313" height="412" viewBox="0 0 313 412" fill="none" xmlns="http://www.w3.org/2000/svg">
<path d="M272.569 276.348C268.319 290.138 261.269 302.523 251.648 312.686C245.811 318.83 239.341 323.64 232.147 327.667C215.917 336.557 196.692 339.464 176.268 336.398C171.842 335.672 167.447 334.762 163.189 333.59C99.0378 315.398 50.9959 235.365 37.877 211.435C34.697 205.422 36.4133 197.844 42.1186 194.235C59.5563 183.176 119.837 148.181 177.311 150.506C164.082 107.62 172.908 63.0492 178.126 43.3577C179.16 39.3611 181.687 36.0825 185.185 34.3838C188.713 32.5006 192.814 32.3211 196.566 33.694C222.567 43.1666 286.634 70.5295 316.026 120.517C318.017 123.968 319.977 127.604 321.722 131.394C340.445 171.961 315.93 214.622 296.773 232.122M296.666 232.199C289.072 236.351 284.542 236.838 276.601 237.335C277.456 247.134 272.523 276.057 270.581 285.586" stroke="#35E032" stroke-width="8.75" stroke-miterlimit="17.5781" stroke-linecap="round" stroke-linejoin="round"/>
<path d="M177.227 150.618C177.227 150.618 193.515 223.36 276.694 237.509" stroke="#35E032" stroke-width="8.75" stroke-miterlimit="17.5781" stroke-linecap="round" stroke-linejoin="round"/>
<path d="M324.387 293.725L253.733 118.118C250.995 111.135 242.156 109.02 236.425 113.949L232.901 116.968C229.269 120.065 228.132 125.275 230.049 129.756L289.74 262.467C289.817 262.574 289.894 262.682 289.864 262.866C293.607 272.382 283.433 281.315 274.387 276.421C274.203 276.39 274.126 276.283 273.941 276.253L147.318 207.066C143.318 204.894 138.312 205.397 134.895 208.339L132.796 210.172C126.957 215.178 127.982 224.531 134.965 228.14L300.638 315.01C304.561 317.075 309.49 316.464 312.907 313.522L321.519 306.036C324.859 302.987 326.15 297.991 324.387 293.725Z" fill="#35E032"/>
</svg>
