<svg width="51" height="50" viewBox="0 0 51 50" fill="none" xmlns="http://www.w3.org/2000/svg">
<path d="M25.4986 49.9998C24.1558 49.9998 22.8074 49.8926 21.4939 49.6797C15.6956 48.746 10.3815 45.7655 6.5327 41.2877C2.64213 36.7612 0.499268 30.9769 0.499268 24.9991C0.499268 11.2137 11.7146 -0.000244141 25.4986 -0.000244141C39.2826 -0.000244141 50.4993 11.2151 50.4993 24.9991C50.4993 31.0687 48.298 36.9212 44.2988 41.4783C40.3387 45.9937 34.898 48.9339 28.9786 49.759C27.8335 49.9191 26.6619 49.9998 25.4986 49.9998ZM25.4986 1.66953C12.6344 1.66953 2.16904 12.1348 2.16904 24.9991C2.16904 36.5163 10.408 46.2038 21.7597 48.0308C24.0487 48.3996 26.4447 48.4246 28.7476 48.1046C40.1953 46.5099 48.8281 36.5762 48.8281 24.9991C48.8281 12.1348 38.3628 1.66953 25.4972 1.66953H25.4986Z" fill="#ECFFF5"/>
<path d="M39.7817 16.1478C39.111 16.8254 38.1815 17.2443 37.1519 17.2443C37.0211 17.2443 36.8903 17.2373 36.7637 17.2234C37.8378 16.5792 38.6671 15.5704 39.0804 14.3668C39.0804 14.3668 39.0817 14.3668 39.0817 14.3654C39.1388 14.204 39.1875 14.0412 39.2265 13.8728C38.3763 14.7814 37.2145 15.3964 35.9107 15.5425C35.7104 15.5662 35.5071 15.5773 35.3012 15.5773C35.2358 15.5773 35.1733 15.5759 35.1106 15.5717C34.6696 15.1084 34.1436 14.7258 33.5606 14.4447C32.9108 14.1274 32.1844 13.941 31.4178 13.9173C31.3551 13.9132 31.2925 13.9118 31.2271 13.9118C30.5773 13.9118 29.9539 14.0273 29.3779 14.2401C29.2304 14.2944 29.0871 14.3528 28.9465 14.421C27.121 15.2768 25.8576 17.1316 25.8576 19.2813C25.8576 19.7224 25.9118 20.151 26.0106 20.5601C25.4512 20.5378 24.8974 20.4835 24.3548 20.4028C24.1808 20.375 24.007 20.3458 23.8344 20.3124C22.4499 20.055 21.1294 19.6125 19.9022 19.0114C18.8043 18.4743 17.7802 17.812 16.8494 17.0411C16.066 16.3955 15.3494 15.6747 14.7093 14.8872C14.6815 14.8538 14.6536 14.819 14.6272 14.7856C14.5896 14.8426 14.5549 14.8997 14.5243 14.9595C14.0762 15.7429 13.823 16.6487 13.823 17.6144C13.823 17.6436 13.8229 17.6756 13.8243 17.7048C13.8355 18.4284 13.9886 19.1171 14.2627 19.7433C14.3796 20.0216 14.5215 20.2846 14.6843 20.5336C15.1643 21.2725 15.8197 21.8875 16.5934 22.3133C16.6281 22.3355 16.6643 22.3536 16.7005 22.3703C16.6448 22.3815 16.5878 22.3912 16.5307 22.3968C16.3721 22.4176 16.2079 22.4288 16.0437 22.4288C15.22 22.4288 14.4533 22.1713 13.8258 21.733C13.8216 21.779 13.8216 21.8263 13.8216 21.8736C13.8216 23.4069 14.4644 24.79 15.4941 25.7654C16.2955 26.5307 17.3322 27.0442 18.4843 27.1944C18.0697 27.3461 17.6216 27.4282 17.1555 27.4282C16.6504 27.4282 16.1662 27.3322 15.7237 27.1555C16.3833 29.2997 18.3493 30.872 20.6925 30.9416C19.2607 32.429 17.2501 33.3529 15.0252 33.3529C13.6421 33.3529 12.3425 32.9953 11.2154 32.3692C13.9245 34.7138 17.4574 36.1303 21.3215 36.1303C29.8607 36.1303 36.7817 29.2092 36.7817 20.67C36.7817 20.1997 36.7608 19.7349 36.7191 19.2758C38.1314 18.7178 39.2515 17.5782 39.7817 16.1492V16.1478Z" fill="#ECFFF5"/>
</svg>
